<svg width="32" height="32" viewBox="0 0 32 32" fill="none" xmlns="http://www.w3.org/2000/svg">
  <rect width="32" height="32" rx="8" fill="#0EA5E9"/>
  <path d="M16 8C14.8954 8 14 8.89543 14 10V22C14 23.1046 14.8954 24 16 24C17.1046 24 18 23.1046 18 22V10C18 8.89543 17.1046 8 16 8Z" fill="white"/>
  <path d="M22 12C20.8954 12 20 12.8954 20 14V18C20 19.1046 20.8954 20 22 20C23.1046 20 24 19.1046 24 18V14C24 12.8954 23.1046 12 22 12Z" fill="white"/>
  <path d="M8 14C8 12.8954 8.89543 12 10 12C11.1046 12 12 12.8954 12 14V18C12 19.1046 11.1046 20 10 20C8.89543 20 8 19.1046 8 18V14Z" fill="white"/>
</svg>